<?xml version="1.0" encoding="UTF-8"?>
<!DOCTYPE svg PUBLIC "-//W3C//DTD SVG 1.1//EN" "http://www.w3.org/Graphics/SVG/1.1/DTD/svg11.dtd">
<svg version="1.1" xmlns="http://www.w3.org/2000/svg" xmlns:xlink="http://www.w3.org/1999/xlink" x="0" y="0" width="500" height="500" viewBox="0, 0, 500, 500">
  <g id="Livello_1">
    <path d="M37.311,37.981 L40.472,38.501 C88.422,46.384 101.699,49.399 111.023,53.517 L111.161,53.578 L111.293,53.652 C128.037,63.031 140.63,69.804 149.652,74.391 C152.795,75.988 155.264,77.197 157.131,78.07 C158.019,78.481 157.713,78.344 158.044,78.492 C159.822,77.864 161.599,77.237 163.376,76.609 C169.9,74.305 169.9,74.305 177.73,71.54 C185.559,68.776 185.559,68.776 192.084,66.471 C197.303,64.628 197.303,64.628 198.608,64.167 L198.909,64.061 L199.224,64.017 C200.797,63.794 200.797,63.794 207.085,62.905 C214.946,61.794 214.946,61.794 224.379,60.46 C233.812,59.126 233.812,59.126 241.673,58.015 C247.961,57.125 247.961,57.125 249.533,56.903 L249.98,56.84 L250.427,56.903 C252,57.125 252,57.125 258.288,58.015 C266.149,59.126 266.149,59.126 275.582,60.46 C285.014,61.794 285.014,61.794 292.875,62.905 C299.164,63.794 299.164,63.794 300.736,64.016 L301.051,64.061 L301.352,64.167 C302.657,64.628 302.657,64.628 307.876,66.471 C314.401,68.775 314.401,68.775 322.231,71.54 C330.06,74.305 330.06,74.305 336.585,76.609 C338.231,77.191 339.877,77.772 341.523,78.353 C350.294,71.826 359.416,65.754 369.17,60.795 C372.192,59.325 374.858,58.243 377.45,57.388 C378.471,57.052 379.449,56.759 380.546,56.455 C381.113,56.299 382.846,55.836 383.068,55.775 C384.408,55.409 385.273,55.132 386.103,54.787 C386.264,54.72 386.423,54.65 386.581,54.578 L386.717,54.515 L386.859,54.466 C421.925,42.216 439.68,38.458 460.006,38.458 L462.724,38.458 L463.158,41.141 C463.28,41.896 463.28,41.896 463.83,45.293 C464.563,49.822 464.563,49.822 465.601,56.239 C468.043,71.336 468.043,71.336 470.974,89.452 C473.905,107.569 473.905,107.569 476.348,122.667 C477.386,129.083 477.386,129.083 478.119,133.612 C478.668,137.009 478.668,137.009 478.79,137.764 L478.911,138.508 L478.686,139.227 C478.628,139.412 478.518,139.757 478.355,140.252 C478.087,141.068 477.769,142.012 477.401,143.074 C476.353,146.099 475.118,149.467 473.701,153.092 C469.652,163.452 464.954,173.815 459.654,183.505 C453.426,194.895 446.176,205.826 436.85,214.926 C437.001,216.642 437.152,218.358 437.303,220.073 C437.888,226.727 437.888,226.727 438.59,234.711 C439.292,242.695 439.292,242.695 439.877,249.348 C440.345,254.67 440.345,254.67 440.462,256.001 L440.516,256.624 L440.332,257.221 C440.029,258.206 440.029,258.206 438.663,262.636 C436.842,268.543 436.842,268.543 434.263,276.911 C428.194,296.601 428.194,296.601 420.91,320.229 C413.627,343.857 413.627,343.857 407.558,363.547 C404.978,371.915 404.978,371.915 403.157,377.822 C401.792,382.252 401.792,382.252 401.488,383.237 L401.563,382.947 C401.465,383.418 401.249,384.147 400.873,385.097 C400.286,386.582 399.454,388.21 398.337,389.939 C395.233,394.748 390.503,399.5 383.844,403.88 C380.551,406.047 376.846,408.076 372.709,409.948 C366.029,412.97 357.302,418.272 347.064,425.37 C344.07,427.445 340.975,429.656 337.797,431.982 C330.252,437.507 322.584,443.43 315.197,449.354 C312.612,451.428 310.246,453.353 308.151,455.08 C307.419,455.684 306.773,456.219 306.22,456.68 C305.89,456.956 305.664,457.145 305.55,457.241 L304.771,457.897 L303.756,457.98 C302.228,458.106 302.228,458.106 296.114,458.61 C291.048,459.027 285.983,459.444 280.917,459.861 C274.774,460.367 268.631,460.873 262.488,461.379 C256.374,461.882 256.374,461.882 254.846,462.008 L254.584,462.019 L245.377,462.019 L245.115,462.008 C243.587,461.882 243.587,461.882 237.473,461.379 C232.407,460.962 227.342,460.544 222.276,460.127 C216.133,459.622 209.99,459.116 203.847,458.61 C197.733,458.106 197.733,458.106 196.205,457.98 L195.19,457.897 L194.41,457.241 C194.297,457.145 194.071,456.956 193.741,456.68 C193.188,456.219 192.542,455.684 191.809,455.08 C189.715,453.353 187.349,451.428 184.764,449.354 C177.377,443.43 169.709,437.507 162.164,431.982 C158.986,429.656 155.891,427.445 152.897,425.37 C142.659,418.272 133.932,412.97 127.252,409.948 C123.115,408.076 119.41,406.047 116.117,403.88 C109.458,399.5 104.728,394.748 101.624,389.939 C100.507,388.21 99.675,386.582 99.087,385.097 C98.712,384.147 98.496,383.418 98.398,382.947 L98.472,383.236 C98.169,382.251 98.169,382.251 96.805,377.821 C94.987,371.914 94.987,371.914 92.411,363.546 C86.349,343.856 86.349,343.856 79.075,320.228 C71.801,296.6 71.801,296.6 65.74,276.91 C63.163,268.542 63.163,268.542 61.345,262.635 C59.981,258.204 59.981,258.204 59.678,257.22 L59.495,256.625 L59.549,256.005 C59.664,254.674 59.664,254.674 60.126,249.351 C60.703,242.698 60.703,242.698 61.396,234.714 C62.088,226.73 62.088,226.73 62.665,220.077 C62.814,218.361 62.963,216.644 63.112,214.928 C53.673,205.964 46.722,194.85 40.355,183.605 C35.059,173.944 30.361,163.614 26.308,153.286 C24.89,149.672 23.653,146.315 22.603,143.298 C22.235,142.24 21.916,141.298 21.647,140.485 C21.485,139.992 21.374,139.648 21.316,139.463 L21.089,138.743 L21.209,137.998 C21.331,137.241 21.331,137.241 21.879,133.836 C22.61,129.296 22.61,129.296 23.646,122.864 C26.082,107.731 26.082,107.731 29.006,89.571 C31.929,71.411 31.929,71.411 34.366,56.277 C35.401,49.845 35.401,49.845 36.132,45.305 C36.68,41.9 36.68,41.9 36.802,41.144 L37.311,37.981 z M457.294,44.876 C433.739,45.167 411.117,52.855 389.086,60.452 C388.785,60.587 388.963,60.509 388.553,60.684 C387.424,61.153 386.33,61.503 384.751,61.935 C378.179,63.73 376.793,64.188 371.963,66.537 C364.846,69.999 355.82,75.691 343.948,84.489 L342.584,85.5 L340.984,84.934 C339.679,84.474 339.679,84.474 334.459,82.63 C327.934,80.326 327.934,80.326 320.104,77.561 C312.275,74.796 312.275,74.796 305.75,72.492 C303.676,71.759 301.6,71.028 299.526,70.294 C297.011,69.939 294.496,69.583 291.981,69.227 C284.12,68.116 284.12,68.116 274.688,66.782 C265.255,65.449 265.255,65.449 257.394,64.337 C254.923,63.988 252.452,63.638 249.98,63.289 C247.509,63.638 245.038,63.988 242.567,64.337 C234.706,65.449 234.706,65.449 225.273,66.782 C215.84,68.116 215.84,68.116 207.979,69.228 C205.464,69.584 202.949,69.938 200.434,70.295 C198.359,71.027 196.285,71.76 194.21,72.493 C187.685,74.797 187.685,74.797 179.856,77.561 C172.026,80.326 172.026,80.326 165.502,82.63 C160.282,84.474 160.282,84.474 158.977,84.934 L157.833,85.338 L156.71,84.881 C156.35,84.734 155.614,84.41 154.427,83.855 C152.493,82.95 149.961,81.711 146.759,80.083 C133.79,73.454 121.037,66.415 108.326,59.309 C106.202,58.414 105.624,58.139 102.923,57.263 C94.597,54.563 85.914,52.983 77.333,51.351 C65.789,49.156 54.19,47.235 42.597,45.323 L42.436,46.32 C41.705,50.86 41.705,50.86 40.67,57.292 C38.234,72.426 38.234,72.426 35.31,90.586 C32.386,108.746 32.386,108.746 29.95,123.879 C28.914,130.311 28.914,130.311 28.183,134.851 C28.001,135.985 27.818,137.119 27.636,138.253 L27.711,138.483 C27.969,139.265 28.277,140.174 28.634,141.2 C29.657,144.14 30.865,147.42 32.252,150.953 C36.213,161.046 40.802,171.136 45.954,180.535 C53.046,193.472 60.634,204.029 68.586,211.351 L69.74,212.414 L69.604,213.976 C69.489,215.307 69.489,215.307 69.027,220.629 C68.644,225.039 68.262,229.449 67.879,233.859 C67.415,239.207 66.951,244.555 66.487,249.903 C66.313,251.914 66.138,253.925 65.964,255.936 C66.458,257.543 66.953,259.149 67.448,260.756 C69.266,266.663 69.266,266.663 71.842,275.031 C77.904,294.721 77.904,294.721 85.178,318.349 C92.452,341.977 92.452,341.977 98.513,361.667 C101.09,370.035 101.09,370.035 102.908,375.942 C104.272,380.372 104.272,380.372 104.575,381.357 L104.619,381.499 L104.649,381.645 C104.647,381.634 104.662,381.693 104.698,381.815 C104.774,382.072 104.881,382.384 105.025,382.747 C105.461,383.848 106.102,385.103 106.988,386.476 C109.609,390.535 113.705,394.651 119.627,398.546 C122.636,400.526 126.047,402.394 129.884,404.13 C136.99,407.345 146.006,412.823 156.535,420.122 C159.576,422.23 162.715,424.472 165.936,426.83 C173.564,432.415 181.304,438.394 188.759,444.373 C191.367,446.465 193.755,448.408 195.871,450.153 C197.192,451.244 196.57,450.729 197.738,451.7 C199.949,451.882 202.16,452.064 204.371,452.246 C212.013,452.875 212.013,452.875 221.184,453.63 C230.355,454.386 230.355,454.386 237.997,455.015 C240.501,455.221 243.005,455.427 245.509,455.634 L254.452,455.634 C256.956,455.427 259.46,455.221 261.964,455.015 C269.606,454.386 269.606,454.386 278.777,453.63 C287.947,452.875 287.947,452.875 295.59,452.246 C297.801,452.064 300.012,451.881 302.223,451.7 C303.391,450.728 302.769,451.244 304.09,450.153 C306.206,448.408 308.593,446.465 311.202,444.373 C318.657,438.394 326.397,432.415 334.025,426.83 C337.246,424.472 340.385,422.23 343.426,420.122 C353.955,412.823 362.971,407.345 370.077,404.13 C373.914,402.394 377.324,400.526 380.334,398.546 C386.255,394.651 390.352,390.535 392.972,386.476 C393.859,385.103 394.5,383.848 394.936,382.747 C395.08,382.384 395.187,382.072 395.263,381.815 C395.299,381.693 395.314,381.634 395.312,381.645 L395.342,381.499 L395.386,381.356 C395.69,380.371 395.69,380.371 397.055,375.941 C398.876,370.034 398.876,370.034 401.456,361.666 C407.525,341.976 407.525,341.976 414.808,318.348 C422.091,294.72 422.091,294.72 428.161,275.03 C430.74,266.662 430.74,266.662 432.561,260.755 C433.056,259.149 433.551,257.543 434.046,255.937 C433.869,253.927 433.693,251.917 433.516,249.907 C432.931,243.254 432.931,243.254 432.229,235.27 C431.527,227.286 431.527,227.286 430.942,220.633 C430.474,215.31 430.474,215.31 430.357,213.979 L430.22,212.415 L431.375,211.351 C439.352,204.006 446.954,193.417 454.052,180.441 C459.209,171.013 463.797,160.891 467.754,150.767 C469.139,147.223 470.346,143.934 471.367,140.985 C471.724,139.955 472.031,139.043 472.289,138.259 L472.365,138.026 C472.181,136.895 471.998,135.763 471.815,134.632 C471.083,130.103 471.083,130.103 470.045,123.686 C467.602,108.589 467.602,108.589 464.671,90.472 C461.74,72.356 461.74,72.356 459.297,57.258 C458.259,50.842 458.259,50.842 457.527,46.313 C457.328,45.085 457.405,45.564 457.294,44.876 z" fill="#000000"/>
    <path d="M387.331,290.597 L393.447,291.958 L390.752,398.094 L384.468,398.807 C384.412,398.592 384.313,398.19 384.176,397.612 C383.951,396.66 383.7,395.552 383.431,394.298 C382.664,390.727 381.897,386.696 381.183,382.284 C378.073,363.089 376.912,343.356 378.844,324.863 C380.172,312.163 382.934,300.647 387.331,290.597 z M386.424,316.977 C385.481,322.533 385.897,319.684 385.195,325.527 C383.988,337.995 383.927,350.616 385.254,363.077 L386.424,316.977 z" fill="#000000"/>
    <path d="M323.541,190.634 C346.042,190.634 366.993,198.173 385.784,212.174 C388.011,213.865 389.794,215.373 391.401,216.982 L396.801,222.387 L389.16,222.431 L292.269,222.98 C284.544,241.398 292.859,258.297 305.582,271.761 L305.744,271.935 C305.796,271.996 305.888,272.103 306.022,272.261 C306.245,272.522 306.502,272.826 306.792,273.169 C307.617,274.149 308.536,275.253 309.524,276.46 C312.35,279.91 315.176,283.495 317.819,287.035 C318.969,288.576 320.061,290.078 321.087,291.534 C325.857,298.304 328.965,303.701 329.995,307.564 C330.66,310.055 331.413,313.876 332.249,318.862 C332.711,321.614 333.193,324.689 333.689,328.029 C334.44,333.085 335.187,338.496 335.897,343.907 C336.145,345.801 336.371,347.559 336.57,349.138 C336.64,349.691 336.701,350.182 336.754,350.605 C336.807,351.035 336.807,351.035 336.809,351.055 C336.876,351.517 336.971,352.335 337.063,353.466 C337.883,363.486 336.936,374.951 332.817,385.927 C326.929,401.618 315.489,413.078 297.469,418.266 L296.586,418.52 L295.703,418.266 C295.611,418.239 295.611,418.239 295.176,418.114 C294.581,417.943 294.581,417.943 293.689,417.685 C292.088,417.224 290.303,416.709 288.381,416.154 C282.891,414.567 277.4,412.975 272.275,411.482 C272.053,411.417 272.053,411.417 271.83,411.352 C265.34,409.461 259.943,407.874 255.989,406.693 C253.739,406.021 251.983,405.488 250.76,405.105 C249.838,404.812 250.174,404.922 249.751,404.782 C249.328,404.922 249.663,404.812 248.741,405.105 C247.518,405.488 245.762,406.021 243.513,406.693 C239.558,407.874 234.161,409.461 227.671,411.352 C227.449,411.417 227.449,411.417 227.226,411.482 C222.101,412.975 216.611,414.567 211.12,416.154 C209.199,416.709 207.414,417.224 205.813,417.685 C204.92,417.943 204.92,417.943 204.325,418.114 C203.891,418.239 203.891,418.239 203.799,418.266 L202.916,418.52 L202.033,418.266 C184.013,413.078 172.573,401.618 166.684,385.927 C162.565,374.951 161.619,363.486 162.438,353.466 C162.531,352.335 162.626,351.517 162.683,351.127 C162.695,351.035 162.695,351.035 162.748,350.605 C162.8,350.182 162.862,349.691 162.932,349.138 C163.131,347.559 163.357,345.801 163.605,343.907 C164.315,338.496 165.062,333.085 165.813,328.029 C166.309,324.689 166.79,321.614 167.252,318.862 C168.089,313.876 168.842,310.055 169.506,307.564 C170.536,303.701 173.644,298.304 178.415,291.534 C179.441,290.078 180.533,288.576 181.683,287.035 C184.325,283.495 187.152,279.91 189.977,276.46 C190.966,275.253 191.885,274.149 192.71,273.169 C192.999,272.826 193.257,272.522 193.479,272.261 C193.614,272.103 193.706,271.996 193.758,271.935 L193.919,271.761 C206.43,259.289 214.706,240.864 207.434,223.46 L108.879,224.018 L101.386,224.061 L106.545,218.627 C109.426,215.593 111.432,213.739 113.74,212.157 C132.509,198.173 153.459,190.634 175.96,190.634 C191.732,191.408 204.772,203.509 211.586,217.051 L288.134,216.618 C294.93,203.198 307.988,191.47 323.541,190.634 z M285.525,223.018 L214.092,223.422 C220.653,243.763 212.562,261.294 198.572,276.131 C198.446,276.277 198.524,276.187 198.339,276.403 C198.124,276.655 197.874,276.95 197.593,277.284 C196.786,278.241 195.886,279.323 194.917,280.507 C192.148,283.887 189.379,287.399 186.8,290.855 C185.683,292.351 184.625,293.806 183.635,295.212 C179.289,301.378 176.449,306.311 175.676,309.209 C175.077,311.457 174.355,315.117 173.55,319.918 C173.095,322.628 172.619,325.664 172.129,328.967 C171.384,333.982 170.641,339.36 169.936,344.738 C169.689,346.621 169.465,348.369 169.267,349.937 C169.198,350.486 169.137,350.973 169.085,351.392 C169.032,351.816 169.032,351.816 169.012,351.976 C169.002,352.044 168.98,352.207 168.951,352.456 C168.901,352.891 168.85,353.403 168.803,353.987 C168.053,363.149 168.926,373.727 172.663,383.683 C177.733,397.741 188.885,407.414 202.957,411.863 C203.694,411.651 203.332,411.755 204.044,411.55 C205.644,411.089 207.427,410.574 209.347,410.019 C214.834,408.434 220.32,406.843 225.44,405.351 C225.662,405.287 225.662,405.287 225.885,405.222 C232.362,403.334 237.747,401.751 241.685,400.575 C243.91,399.91 245.642,399.384 246.832,399.011 C247.444,398.82 247.906,398.67 248.203,398.569 C248.325,398.527 248.407,398.497 248.432,398.487 C245.575,399.632 246.558,399.124 246.558,401.383 L252.944,401.383 C252.944,399.124 253.927,399.632 251.069,398.487 C251.094,398.497 251.177,398.527 251.298,398.569 C251.596,398.67 252.058,398.82 252.669,399.011 C253.86,399.384 255.592,399.91 257.817,400.575 C261.755,401.751 267.14,403.334 273.617,405.222 L274.061,405.351 C279.181,406.843 284.668,408.434 290.154,410.019 C292.074,410.574 293.858,411.089 295.458,411.55 C296.17,411.755 295.807,411.651 296.545,411.863 C311.01,407.844 321.32,397.348 326.839,383.683 C330.575,373.727 331.448,363.149 330.699,353.987 C330.651,353.403 330.6,352.891 330.55,352.456 C330.521,352.207 330.5,352.044 330.48,351.904 C330.47,351.816 330.47,351.816 330.417,351.392 C330.365,350.973 330.304,350.486 330.235,349.937 C330.037,348.369 329.812,346.621 329.566,344.738 C328.86,339.36 328.118,333.982 327.373,328.967 C326.882,325.664 326.407,322.628 325.952,319.918 C325.146,315.117 324.425,311.457 323.826,309.209 C323.053,306.311 320.212,301.378 315.867,295.212 C314.876,293.806 313.818,292.351 312.702,290.855 C310.122,287.399 307.354,283.887 304.585,280.507 C303.615,279.323 302.716,278.241 301.909,277.284 C301.627,276.95 301.378,276.655 301.163,276.403 C300.978,276.187 301.056,276.277 300.931,276.133 C288.403,263.62 280.441,246.716 283.868,228.803 C284.245,226.833 284.973,224.946 285.525,223.018 z M175.96,197.019 C154.894,197.019 135.263,204.083 117.455,217.349 L117.135,217.586 L204.322,217.092 C198.202,206.999 188.305,197.735 175.96,197.019 z M323.541,197.019 C311.383,197.657 301.66,206.761 295.503,216.576 L380.302,216.095 C363.808,203.784 344.006,197.449 323.541,197.019 z" fill="#000000"/>
    <path d="M252.944,339.509 L252.944,458.627 L246.558,458.627 L246.558,339.509 L252.944,339.509 z" fill="#000000"/>
    <path d="M365.031,197.036 L361.31,202.75 C361.145,203.003 360.844,203.447 360.411,204.055 C359.703,205.049 358.876,206.152 357.936,207.337 C355.256,210.716 352.194,214.094 348.79,217.254 C337.463,227.771 325.113,233.507 312.202,231.689 C301.048,230.118 294.678,225.939 292.724,219.685 C291.639,216.209 292.074,212.65 293.408,209.267 C293.886,208.055 294.374,207.126 294.739,206.547 L295.551,205.258 L297.064,205.079 L358.259,197.837 L365.031,197.036 z M351.541,205.062 L299.52,211.218 L299.348,211.609 C298.501,213.757 298.237,215.917 298.819,217.781 C299.93,221.337 304.152,224.107 313.093,225.366 C323.728,226.864 334.388,221.913 344.446,212.574 C346.966,210.224 349.352,207.724 351.541,205.062 z" fill="#000000"/>
    <path d="M134.255,197.036 L141.027,197.837 L202.222,205.079 L203.735,205.258 L204.548,206.547 C204.912,207.126 205.401,208.055 205.879,209.267 C207.212,212.65 207.648,216.209 206.562,219.685 C204.609,225.939 198.239,230.118 187.084,231.689 C174.174,233.507 161.823,227.771 150.496,217.254 C147.092,214.094 144.03,210.716 141.35,207.337 C140.41,206.152 139.583,205.049 138.875,204.055 C138.443,203.447 138.141,203.003 137.976,202.75 L134.255,197.036 z M147.745,205.062 C149.875,207.782 152.366,210.179 154.841,212.574 C164.899,221.913 175.558,226.864 186.193,225.366 C195.135,224.107 199.357,221.337 200.467,217.781 C201.049,215.917 200.785,213.757 199.938,211.609 L199.767,211.218 L147.745,205.062 z" fill="#000000"/>
    <path d="M290.55,328.876 L291.415,331.519 C291.631,332.178 291.93,333.293 292.222,334.779 C293.386,340.705 293.38,347.029 291.387,353.063 C286.884,366.698 273.542,374.804 249.751,374.804 C225.985,374.804 212.446,366.728 207.546,353.146 C205.318,346.971 205.165,340.502 206.22,334.503 C206.453,333.179 206.692,332.189 206.866,331.604 L207.676,328.876 L210.478,329.369 L249.743,336.266 L287.813,329.372 L290.55,328.876 z M285.982,336.192 L250.32,342.651 L249.759,342.752 L249.198,342.654 L212.438,336.196 C211.512,341.174 212.038,346.193 213.553,350.979 C217.469,361.833 228.509,368.418 249.751,368.418 C270.967,368.418 281.756,361.863 285.324,351.061 C286.561,347.388 286.699,343.619 286.492,339.766 C286.427,338.564 286.152,337.383 285.982,336.192 z" fill="#000000"/>
    <path d="M115.127,290.597 C119.524,300.647 122.286,312.163 123.614,324.863 C125.546,343.356 124.385,363.089 121.275,382.284 C120.561,386.696 119.795,390.727 119.027,394.298 C118.758,395.552 118.507,396.66 118.282,397.612 C118.145,398.19 118.046,398.592 117.99,398.807 L111.706,398.095 L109.011,291.958 L115.127,290.597 z M116.034,316.976 L117.204,363.078 C118.427,352.866 118.27,342.533 117.824,332.282 C117.726,330.025 117.45,327.779 117.263,325.527 C116.561,319.683 116.977,322.533 116.034,316.976 z" fill="#000000"/>
    <path d="M252.944,94.945 L252.944,152.905 L246.558,152.905 L246.558,94.945 L252.944,94.945 z" fill="#000000"/>
    <path d="M105.338,52.019 L108.66,57.273 L26.639,140.743 L21.562,136.969 L58.874,68.982 L59.466,67.903 L60.629,67.501 L105.338,52.019 z M94.565,62.507 L63.88,73.132 L38.273,119.793 L94.565,62.507 z" fill="#000000"/>
    <path d="M197.924,93.438 L203.553,96.452 L183.628,133.668 L177.999,130.654 L197.924,93.438 z" fill="#000000"/>
    <path d="M298.131,93.438 L318.056,130.654 L312.427,133.668 L292.502,96.452 L298.131,93.438 z" fill="#000000"/>
    <path d="M394.662,52.019 L439.371,67.501 L440.534,67.903 L441.126,68.982 L478.438,136.969 L473.361,140.743 L391.34,57.273 L394.662,52.019 z M405.435,62.507 L461.728,119.793 L436.12,73.132 L405.435,62.507 z" fill="#000000"/>
  </g>
</svg>
